<?xml version="1.0" standalone="no"?>
<!DOCTYPE svg PUBLIC "-//W3C//DTD SVG 20010904//EN"
 "http://www.w3.org/TR/2001/REC-SVG-20010904/DTD/svg10.dtd">
<svg version="1.0" xmlns="http://www.w3.org/2000/svg"
 width="512.000000pt" height="512.000000pt" viewBox="0 0 512.000000 512.000000"
 preserveAspectRatio="xMidYMid meet">
<metadata>
Created by potrace 1.14, written by Peter Selinger 2001-2017
</metadata>
<g transform="translate(0.000000,512.000000) scale(0.100000,-0.100000)"
fill="#000000" stroke="none">
<path d="M640 4961 l0 -50 -52 -3 -53 -3 -3 -52 -3 -53 -50 0 -49 0 0 -320 0
-320 50 0 50 0 0 -215 0 -215 -50 0 -49 0 -3 -157 -3 -158 -52 -3 -52 -3 -3
-157 -3 -157 -52 -3 -53 -3 0 -585 0 -584 55 0 55 0 0 -159 0 -160 53 -3 52
-3 3 -103 3 -102 49 0 49 0 3 -108 3 -107 53 -3 52 -3 0 -49 0 -49 53 -3 52
-3 3 -52 3 -53 49 0 49 0 3 -52 3 -53 53 -3 52 -3 0 -49 0 -49 53 -3 52 -3 3
-53 3 -52 49 0 49 0 3 -52 3 -53 108 -3 107 -3 0 -49 0 -49 103 -3 102 -3 3
-157 3 -157 52 -3 52 -3 3 -52 3 -53 104 0 104 0 3 53 3 52 53 3 52 3 0 50 0
49 530 0 530 0 0 -49 0 -50 53 -3 52 -3 3 -52 3 -53 104 0 104 0 3 53 3 52 52
3 52 3 3 157 3 157 103 3 102 3 0 49 0 49 107 3 108 3 3 53 3 52 49 0 49 0 3
53 3 52 53 3 52 3 0 49 0 49 53 3 52 3 3 53 3 52 49 0 49 0 3 53 3 52 53 3 52
3 0 49 0 49 53 3 52 3 3 108 3 107 49 0 49 0 3 103 3 102 53 3 52 3 0 160 0
159 55 0 55 0 0 584 0 585 -52 3 -53 3 -3 157 -3 157 -52 3 -52 3 -3 158 -3
157 -49 0 -50 0 0 215 0 215 50 0 50 0 0 320 0 320 -49 0 -50 0 -3 53 -3 52
-52 3 -53 3 0 50 0 49 -215 0 -215 0 0 -50 0 -49 -102 -3 -103 -3 -3 -52 -3
-53 -319 0 -319 0 -3 53 -3 52 -635 0 -635 0 -3 -52 -3 -53 -319 0 -319 0 -3
53 -3 52 -102 3 -103 3 0 49 0 50 -215 0 -215 0 0 -49z m2450 -171 c10 -6 13
-22 11 -50 l-3 -42 41 3 c22 2 43 0 47 -4 4 -4 55 -7 113 -7 58 0 111 -4 116
-8 6 -4 10 -25 10 -47 l0 -40 38 3 c21 2 44 -2 52 -8 9 -7 49 -10 117 -8 l103
3 3 -52 3 -53 105 0 104 0 0 -49 0 -50 48 -3 47 -3 3 -52 c2 -32 8 -53 15 -54
7 0 30 -1 52 -2 l40 -2 3 -52 3 -53 50 0 c31 0 51 -5 54 -12 3 -7 7 -53 9
-103 l4 -90 43 0 44 0 5 -55 5 -55 50 -5 50 -5 8 -101 9 -101 41 1 42 1 3
-109 c1 -61 7 -115 13 -122 6 -7 9 -30 7 -51 l-3 -38 45 0 45 0 3 -105 c1 -58
5 -112 9 -120 3 -8 7 -33 7 -55 l1 -40 39 3 c25 3 42 -1 47 -10 12 -18 11
-939 -1 -958 -6 -10 -22 -13 -50 -11 l-42 3 3 -41 c2 -22 0 -43 -4 -47 -4 -4
-7 -55 -7 -113 0 -58 -4 -111 -8 -116 -4 -6 -25 -10 -47 -10 l-40 0 3 -41 c2
-23 -1 -45 -7 -49 -7 -4 -11 -47 -11 -111 l0 -104 -50 0 -50 0 0 -104 0 -105
-52 -3 -53 -3 -3 -52 -3 -52 -52 -3 -52 -3 -5 -50 -5 -50 -47 -3 -48 -3 0 -49
0 -49 -52 -3 -53 -3 -3 -52 -3 -52 -52 -3 -52 -3 -5 -50 -5 -50 -90 -2 c-49
-1 -96 -2 -102 -2 -9 -1 -13 -18 -13 -51 l0 -50 -104 0 c-64 0 -107 -4 -111
-11 -4 -6 -26 -9 -49 -7 l-41 3 0 -40 c1 -48 -7 -55 -66 -55 l-47 0 -4 -45
c-2 -24 -2 -49 0 -55 2 -5 26 -10 53 -10 l49 0 0 -105 0 -105 -105 0 -105 0 0
50 c0 33 -4 50 -12 51 -7 0 -31 1 -53 2 l-40 2 -5 53 -5 53 -525 0 -525 0 -5
-53 -5 -53 -40 -2 c-22 -1 -46 -2 -52 -2 -9 -1 -13 -18 -13 -51 l0 -50 -105 0
-105 0 0 105 0 105 49 0 c27 0 51 5 53 10 2 6 2 31 0 55 l-4 45 -47 0 c-59 0
-67 7 -66 55 l0 40 -41 -3 c-23 -2 -45 1 -49 7 -4 7 -47 11 -111 11 l-104 0 0
50 c0 33 -4 50 -12 51 -7 0 -53 1 -103 2 l-90 2 -5 50 -5 50 -52 3 -52 3 -3
52 -3 52 -52 3 -53 3 0 49 0 49 -47 3 -48 3 -5 50 -5 50 -52 3 -52 3 -3 52 -3
52 -53 3 -52 3 0 105 0 104 -50 0 -50 0 0 104 c0 64 -4 107 -11 111 -6 4 -9
26 -7 49 l3 41 -40 0 c-22 0 -43 4 -47 10 -4 5 -8 58 -8 116 0 58 -3 109 -7
113 -4 4 -6 25 -4 47 l3 41 -42 -3 c-28 -2 -44 1 -50 11 -12 19 -13 940 -1
958 5 9 22 13 47 10 l39 -3 1 40 c0 22 4 47 7 55 4 8 8 62 9 120 l3 105 45 0
45 0 -3 38 c-2 21 1 44 7 51 6 7 12 61 13 122 l3 109 42 -1 41 -1 9 101 8 101
50 5 50 5 5 55 5 55 44 0 43 0 4 90 c2 50 6 96 9 103 3 7 23 12 54 12 l50 0 3
53 3 52 40 2 c22 1 45 2 52 2 7 1 13 22 15 54 l3 52 48 3 47 3 0 50 0 49 109
0 110 0 3 53 3 52 103 -3 c56 -2 108 0 114 4 7 5 30 7 52 5 l39 -3 -5 46 c-4
33 -2 46 9 50 8 3 61 6 117 6 57 0 106 3 110 7 4 4 25 6 47 4 l41 -3 -3 42
c-2 28 1 44 11 50 9 6 231 10 530 10 299 0 521 -4 530 -10z m-1117 -18 c-15
-2 -23 -11 -24 -25 -1 -20 -2 -20 -8 3 -10 34 -6 38 26 31 25 -5 26 -6 6 -9z
m1208 -19 c-5 -25 -6 -26 -9 -5 -2 14 -11 22 -25 23 -20 1 -20 2 3 8 34 10 38
6 31 -26z m-1549 -103 c-5 -36 -7 -35 -16 3 -4 19 -3 27 7 27 9 0 12 -9 9 -30z
m1872 3 c-9 -38 -11 -39 -16 -3 -3 21 0 30 9 30 10 0 11 -8 7 -27z m-2940
-960 c-10 -40 -14 -41 -14 -5 0 18 5 32 10 32 6 0 8 -11 4 -27z m4006 -5 c0
-36 -4 -35 -14 5 -4 16 -2 27 4 27 5 0 10 -14 10 -32z m-4110 -298 c0 -5 -4
-10 -10 -10 -5 0 -10 5 -10 10 0 6 5 10 10 10 6 0 10 -4 10 -10z m4220 0 c0
-5 -4 -10 -10 -10 -5 0 -10 5 -10 10 0 6 5 10 10 10 6 0 10 -4 10 -10z m-4328
-340 c-5 -36 -7 -35 -16 3 -4 19 -3 27 7 27 9 0 12 -9 9 -30z m4432 3 c-9 -38
-11 -39 -16 -3 -3 21 0 30 9 30 10 0 11 -8 7 -27z m-4411 -1104 c20 -1 20 -2
-3 -8 -34 -10 -38 -6 -31 26 5 25 6 26 9 6 2 -15 11 -23 25 -24z m4411 -10
c-2 -4 -16 -4 -31 0 -25 5 -26 6 -5 9 14 2 22 11 23 25 1 20 2 20 8 -3 5 -14
6 -28 5 -31z m-4286 -314 c-2 -1 -15 -5 -30 -9 -20 -4 -28 -3 -28 7 0 9 9 12
30 9 17 -2 30 -5 28 -7z m4181 -10 c-2 -2 -17 0 -34 3 l-30 6 30 6 c26 5 45
-4 34 -15z m-3052 -1174 c-14 -5 -16 2 -9 34 l6 30 6 -30 c3 -16 2 -32 -3 -34z
m1877 27 c4 -20 3 -28 -7 -28 -9 0 -12 9 -9 30 5 36 7 35 16 -2z"/>
<path d="M1597 4483 c-4 -3 -7 -28 -7 -55 l0 -48 -50 0 c-44 0 -50 -3 -55 -23
-4 -13 -5 -37 -3 -53 3 -27 1 -29 -26 -26 -16 2 -40 1 -53 -3 -22 -5 -23 -9
-23 -114 0 -90 3 -110 16 -115 20 -8 178 -8 198 0 12 4 16 20 16 55 l0 49 50
0 c44 0 50 3 55 23 4 13 5 37 3 53 l-3 29 97 3 97 3 3 -53 3 -53 107 -3 107
-3 3 -47 3 -47 53 -3 52 -3 0 -55 0 -55 108 3 107 3 3 53 3 52 99 0 99 0 3
-52 3 -53 108 -3 107 -3 0 55 0 55 53 3 52 3 3 53 3 52 104 0 104 0 3 48 3 47
103 3 102 3 0 -51 c0 -33 4 -50 13 -51 6 0 30 -1 52 -2 l40 -2 3 -53 3 -53
107 3 107 3 0 105 0 105 -52 3 -52 3 -3 52 -3 52 -50 5 -50 5 -3 47 -3 47
-205 3 c-112 2 -209 2 -214 0 -6 -2 -10 -26 -10 -52 l0 -49 -52 -3 -53 -3 -3
-107 -3 -108 -49 0 -50 0 0 -50 0 -50 -105 0 -106 0 3 103 3 102 48 3 47 3 0
50 0 49 -210 0 -210 0 0 -49 0 -50 48 -3 47 -3 3 -102 3 -103 -105 0 -105 0
-3 53 -3 52 -45 0 -45 0 -3 107 -3 107 -52 3 c-51 3 -52 4 -49 32 2 16 1 40
-3 53 l-5 23 -214 0 c-117 0 -216 -3 -219 -7z"/>
<path d="M1759 3833 l-46 -4 1 -42 1 -42 -170 -7 c-93 -4 -189 -9 -212 -10
l-42 -2 -3 -46 -3 -45 -57 -3 -57 -3 -3 -52 -3 -52 -52 -3 -53 -3 0 -50 0 -49
-49 0 -50 0 -3 -52 -3 -53 -52 -3 -52 -3 -3 -52 -3 -52 -52 -3 -52 -3 -3 -57
-3 -57 -41 1 -41 1 -7 -66 c-3 -36 -6 -104 -6 -151 0 -47 -4 -91 -9 -98 -5 -9
-22 -13 -47 -10 l-39 3 0 -42 c0 -23 -3 -45 -7 -49 -10 -9 -10 -758 -1 -768 4
-4 6 -25 4 -47 l-3 -41 42 3 c53 4 60 -7 60 -106 0 -44 3 -111 7 -148 l6 -68
41 3 41 3 5 -60 5 -60 53 -3 52 -3 0 -50 c0 -32 4 -49 13 -50 6 0 30 -1 52 -2
l40 -2 3 -52 3 -53 49 0 49 0 3 -52 3 -53 53 -3 52 -3 0 -50 c0 -32 4 -49 13
-50 6 0 30 -1 52 -2 l40 -2 3 -52 3 -53 49 0 49 0 3 -52 3 -53 60 -5 60 -5 -3
-41 -3 -41 68 -6 c37 -4 127 -7 200 -7 72 0 138 -3 147 -6 11 -4 16 -19 16
-51 l0 -45 40 3 c21 2 42 0 46 -4 10 -9 1078 -9 1088 0 4 4 25 6 46 4 l40 -3
0 45 c0 32 5 47 16 51 9 3 75 6 147 6 73 0 163 3 200 7 l68 6 -3 41 -3 41 60
5 60 5 3 53 3 52 49 0 49 0 3 53 3 52 40 2 c22 1 46 2 53 2 8 1 12 18 12 50
l0 50 53 3 52 3 3 53 3 52 49 0 49 0 3 53 3 52 40 2 c22 1 46 2 53 2 8 1 12
18 12 50 l0 50 53 3 52 3 5 60 5 60 41 -3 41 -3 6 68 c4 37 7 104 7 148 0 99
7 110 60 106 l42 -3 -3 41 c-2 22 0 43 4 47 9 10 9 759 0 768 -5 4 -8 26 -8
49 l0 42 -39 -3 c-25 -3 -42 1 -47 10 -5 7 -9 51 -9 98 0 47 -3 115 -6 151
l-7 66 -41 -1 -41 -1 -3 57 -3 57 -52 3 -52 3 -3 52 -3 52 -52 3 -52 3 -3 53
-3 52 -50 0 -49 0 0 49 0 50 -52 3 -53 3 -3 52 -3 52 -57 3 -57 3 -3 45 -3 46
-42 2 c-23 1 -118 6 -212 10 l-170 7 1 41 1 41 -66 7 c-68 6 -1501 5 -1582 -1z
m41 -73 c0 -5 -15 -10 -32 -9 -31 1 -32 1 -8 9 35 11 40 11 40 0z m1579 -6 c2
-2 -10 -4 -27 -4 -18 0 -32 5 -32 10 0 9 47 4 59 -6z m-2013 -112 c-11 -10
-14 3 -8 33 l7 30 3 -28 c2 -16 1 -31 -2 -35z m2398 26 c4 -17 2 -28 -4 -28
-5 0 -10 14 -10 32 0 36 4 35 14 -4z m-3038 -666 c-11 -10 -14 3 -8 33 l7 30
3 -28 c2 -16 1 -31 -2 -35z m3678 26 c4 -17 2 -28 -4 -28 -5 0 -10 14 -10 32
0 36 4 35 14 -4z m-2065 -68 c20 -47 24 -50 49 -43 34 9 319 10 353 0 23 -6
28 -2 49 43 13 28 28 50 34 50 25 0 200 -51 276 -81 75 -28 84 -35 114 -83
165 -258 260 -618 239 -911 l-6 -84 -66 -44 c-36 -24 -95 -60 -131 -79 -65
-36 -249 -113 -255 -106 -6 7 -73 114 -83 134 -11 21 -7 24 64 58 67 32 75 38
63 52 -15 18 -23 17 -140 -25 -120 -43 -269 -65 -392 -56 -110 7 -261 42 -342
79 -52 24 -54 24 -71 5 -16 -18 -14 -20 59 -55 l76 -36 -31 -51 c-17 -29 -39
-64 -50 -79 l-19 -27 -57 20 c-95 35 -234 105 -314 158 l-76 51 -7 77 c-22
225 44 543 160 775 99 198 104 203 295 261 190 59 182 59 209 -3z m-1715 -252
c4 -20 3 -28 -7 -28 -9 0 -12 9 -9 30 5 36 7 35 16 -2z m3883 -27 c-14 -5 -16
2 -9 34 l6 30 6 -30 c3 -16 2 -32 -3 -34z m-3886 -808 c-5 -25 -6 -26 -9 -5
-2 14 -11 22 -25 23 -20 1 -20 2 3 8 34 10 38 6 31 -26z m3912 19 c-15 -2 -23
-11 -24 -25 -1 -20 -2 -20 -8 3 -10 34 -6 38 26 31 25 -5 26 -6 6 -9z m-3804
-334 c-1 -24 -3 -27 -6 -10 -3 16 -12 22 -31 23 -27 1 -27 1 3 9 17 4 31 8 33
9 1 0 1 -14 1 -31z m3699 14 c-18 -2 -28 -10 -31 -25 -3 -16 -5 -14 -6 9 -1
29 0 30 32 25 31 -5 31 -6 5 -9z m-2847 -874 c-5 -32 -6 -32 -9 -6 -2 18 -10
28 -25 31 -16 3 -14 5 9 6 29 1 30 0 25 -31z m1992 25 c-15 -3 -23 -13 -25
-31 -3 -26 -4 -26 -9 6 -5 31 -4 32 25 31 23 -1 25 -3 9 -6z m-1564 -125 c-1
-24 -3 -27 -6 -10 -3 16 -12 22 -31 23 -27 1 -27 1 3 9 17 4 31 8 33 9 1 0 1
-14 1 -31z m1139 14 c-18 -2 -28 -10 -31 -25 -3 -16 -5 -14 -6 9 -1 29 0 30
32 25 31 -5 31 -6 5 -9z"/>
<path d="M2189 2407 c-70 -47 -100 -157 -65 -240 18 -44 78 -95 120 -102 122
-23 223 127 171 253 -43 101 -147 142 -226 89z"/>
<path d="M2793 2414 c-101 -51 -123 -207 -41 -299 74 -85 193 -63 248 46 40
77 14 193 -52 241 -40 28 -113 34 -155 12z"/>
</g>
</svg>
